<svg width="80" height="80" viewBox="0 0 80 80" fill="none" xmlns="http://www.w3.org/2000/svg">
<path d="M38.1605 49.6341L38.1609 49.6337L52.8254 34.9695C52.8254 34.9695 52.8254 34.9694 52.8254 34.9694C54.0981 33.697 54.0972 31.6367 52.826 30.3635L52.825 30.3626C51.5533 29.0926 49.4931 29.0913 48.2223 30.363C48.2221 30.3631 48.222 30.3632 48.2219 30.3633L35.8584 42.7273L31.7828 38.6503L31.7826 38.6501C30.5103 37.3781 28.4497 37.378 27.1775 38.6502C25.905 39.9225 25.9056 41.983 27.1772 43.2557L27.1775 43.2561L33.5553 49.6337L33.5567 49.6352C34.1911 50.2669 35.0219 50.5884 35.8583 50.5884C36.6887 50.5884 37.526 50.2678 38.1605 49.6341ZM13 39.999C13 25.1123 25.1148 13 40 13C54.8894 13 67 25.1122 67 39.999C67 54.8867 54.8885 67 40 67C25.1141 67 13 54.8857 13 39.999Z" stroke="#FAFAFA" stroke-width="2"/>
</svg>
